{
	"patcher" : 	{
		"fileversion" : 1,
		"appversion" : 		{
			"major" : 7,
			"minor" : 0,
			"revision" : 6,
			"architecture" : "x86",
			"modernui" : 1
		}
,
		"rect" : [ 146.0, 79.0, 860.0, 633.0 ],
		"bgcolor" : [ 0.196078, 0.227451, 0.317647, 1.0 ],
		"bglocked" : 0,
		"openinpresentation" : 0,
		"default_fontsize" : 12.0,
		"default_fontface" : 0,
		"default_fontname" : "Arial",
		"gridonopen" : 1,
		"gridsize" : [ 15.0, 15.0 ],
		"gridsnaponopen" : 1,
		"objectsnaponopen" : 1,
		"statusbarvisible" : 2,
		"toolbarvisible" : 1,
		"lefttoolbarpinned" : 0,
		"toptoolbarpinned" : 0,
		"righttoolbarpinned" : 0,
		"bottomtoolbarpinned" : 0,
		"toolbars_unpinned_last_save" : 0,
		"tallnewobj" : 0,
		"boxanimatetime" : 200,
		"enablehscroll" : 1,
		"enablevscroll" : 1,
		"devicewidth" : 0.0,
		"description" : "",
		"digest" : "",
		"tags" : "",
		"style" : "",
		"subpatcher_template" : "",
		"boxes" : [ 			{
				"box" : 				{
					"fontname" : "Arial",
					"fontsize" : 14.0,
					"id" : "obj-1",
					"maxclass" : "comment",
					"numinlets" : 1,
					"numoutlets" : 0,
					"patching_rect" : [ 659.656738, 466.0, 52.0, 22.0 ],
					"style" : "",
					"text" : "xray.jit",
					"textcolor" : [ 0.486275, 0.592157, 0.811765, 1.0 ]
				}

			}
, 			{
				"box" : 				{
					"fontname" : "Arial",
					"fontsize" : 10.0,
					"id" : "obj-36",
					"maxclass" : "comment",
					"numinlets" : 1,
					"numoutlets" : 0,
					"patching_rect" : [ 599.656738, 506.0, 157.0, 18.0 ],
					"style" : "",
					"text" : "www.github.com/weshoke/xray.jit",
					"textcolor" : [ 0.533333, 0.611765, 0.698039, 1.0 ]
				}

			}
, 			{
				"box" : 				{
					"fontname" : "Arial",
					"fontsize" : 10.0,
					"id" : "obj-43",
					"maxclass" : "comment",
					"numinlets" : 1,
					"numoutlets" : 0,
					"patching_rect" : [ 659.656738, 487.0, 88.0, 18.0 ],
					"style" : "",
					"text" : "by Wesley Smith",
					"textcolor" : [ 0.886275, 0.905882, 0.929412, 1.0 ]
				}

			}
, 			{
				"box" : 				{
					"id" : "obj-44",
					"maxclass" : "fpic",
					"numinlets" : 1,
					"numoutlets" : 1,
					"outlettype" : [ "jit_matrix" ],
					"patching_rect" : [ 608.656738, 467.0, 43.0, 37.0 ],
					"pic" : "xray.jit.pct"
				}

			}
, 			{
				"box" : 				{
					"angle" : 270.0,
					"bgcolor" : [ 0.211765, 0.227451, 0.305882, 1.0 ],
					"border" : 1,
					"bordercolor" : [ 0.0, 0.0, 0.0, 1.0 ],
					"id" : "obj-45",
					"maxclass" : "panel",
					"mode" : 0,
					"numinlets" : 1,
					"numoutlets" : 0,
					"patching_rect" : [ 595.656738, 463.0, 164.0, 63.0 ],
					"proportion" : 0.39,
					"rounded" : 0,
					"style" : ""
				}

			}
, 			{
				"box" : 				{
					"bgmode" : 0,
					"border" : 0,
					"clickthrough" : 0,
					"enablehscroll" : 0,
					"enablevscroll" : 0,
					"id" : "obj-3",
					"lockeddragscroll" : 0,
					"maxclass" : "bpatcher",
					"name" : "demovideo.maxpat",
					"numinlets" : 0,
					"numoutlets" : 1,
					"offset" : [ 0.0, 0.0 ],
					"outlettype" : [ "jit_matrix" ],
					"patching_rect" : [ 36.0, 34.0, 230.0, 125.0 ],
					"viewvisibility" : 1
				}

			}
, 			{
				"box" : 				{
					"fontname" : "Arial",
					"fontsize" : 11.0,
					"id" : "obj-2",
					"linecount" : 2,
					"maxclass" : "comment",
					"numinlets" : 1,
					"numoutlets" : 0,
					"patching_rect" : [ 482.0, 161.0, 247.0, 31.0 ],
					"style" : "",
					"text" : "Takes 1-plane 2D matrices of any type and outputs 3 1-plane 2D float32 or float64 matrices",
					"textcolor" : [ 0.521569, 0.513726, 0.45098, 1.0 ]
				}

			}
, 			{
				"box" : 				{
					"fontname" : "Arial",
					"fontsize" : 11.0,
					"id" : "obj-4",
					"linecount" : 2,
					"maxclass" : "comment",
					"numinlets" : 1,
					"numoutlets" : 0,
					"patching_rect" : [ 482.0, 133.0, 352.0, 31.0 ],
					"style" : "",
					"text" : "see: http://geosci.uchicago.edu/~gidon/geos31415/genLin/svd.pdf or Wikipedia (especially the links at the bottom of the page)",
					"textcolor" : [ 0.521569, 0.513726, 0.45098, 1.0 ]
				}

			}
, 			{
				"box" : 				{
					"fontname" : "Arial",
					"fontsize" : 11.0,
					"id" : "obj-5",
					"linecount" : 3,
					"maxclass" : "comment",
					"numinlets" : 1,
					"numoutlets" : 0,
					"patching_rect" : [ 482.0, 386.0, 302.0, 43.0 ],
					"style" : "",
					"text" : "xray.jit.svd always outputs the matrices U, ∑, and V with the largest eignevalue and corresponding eigenvector in the left-most position and the rest in descending order.",
					"textcolor" : [ 0.698039, 0.705882, 0.654902, 1.0 ]
				}

			}
, 			{
				"box" : 				{
					"fontname" : "Arial",
					"fontsize" : 11.0,
					"id" : "obj-6",
					"linecount" : 4,
					"maxclass" : "comment",
					"numinlets" : 1,
					"numoutlets" : 0,
					"patching_rect" : [ 482.0, 329.0, 296.0, 56.0 ],
					"style" : "",
					"text" : "The ∑ matrix contains the eigenvalues of the matrix. ∑ is a diagonal matrix although xray.jit.svd outputs this diagonal matrix as a vector since every value in the matrix except values along the diagonal are zero.",
					"textcolor" : [ 0.698039, 0.705882, 0.654902, 1.0 ]
				}

			}
, 			{
				"box" : 				{
					"fontname" : "Arial",
					"fontsize" : 9.0,
					"id" : "obj-7",
					"maxclass" : "comment",
					"numinlets" : 1,
					"numoutlets" : 0,
					"patching_rect" : [ 441.0, 468.0, 117.0, 17.0 ],
					"style" : "",
					"text" : "eigenvectors of A^T*A",
					"textcolor" : [ 0.8, 0.611765, 0.380392, 1.0 ]
				}

			}
, 			{
				"box" : 				{
					"fontname" : "Arial",
					"fontsize" : 9.0,
					"id" : "obj-8",
					"maxclass" : "comment",
					"numinlets" : 1,
					"numoutlets" : 0,
					"patching_rect" : [ 294.0, 468.0, 61.0, 17.0 ],
					"style" : "",
					"text" : "eigenvalues",
					"textcolor" : [ 0.8, 0.611765, 0.380392, 1.0 ]
				}

			}
, 			{
				"box" : 				{
					"fontname" : "Arial",
					"fontsize" : 9.0,
					"id" : "obj-9",
					"maxclass" : "comment",
					"numinlets" : 1,
					"numoutlets" : 0,
					"patching_rect" : [ 62.0, 468.0, 138.0, 17.0 ],
					"style" : "",
					"text" : "eigenvectors of A*A^T",
					"textcolor" : [ 0.8, 0.611765, 0.380392, 1.0 ]
				}

			}
, 			{
				"box" : 				{
					"fontname" : "Arial",
					"fontsize" : 11.0,
					"id" : "obj-10",
					"maxclass" : "newobj",
					"numinlets" : 1,
					"numoutlets" : 1,
					"outlettype" : [ "" ],
					"patching_rect" : [ 319.0, 138.0, 130.0, 21.0 ],
					"saved_object_attributes" : 					{
						"filename" : "xray.diagonalize.js",
						"parameter_enable" : 0
					}
,
					"style" : "",
					"text" : "js xray.diagonalize.js"
				}

			}
, 			{
				"box" : 				{
					"fontname" : "Arial",
					"fontsize" : 11.0,
					"id" : "obj-11",
					"maxclass" : "newobj",
					"numinlets" : 0,
					"numoutlets" : 1,
					"outlettype" : [ "" ],
					"patching_rect" : [ 319.0, 102.0, 51.0, 21.0 ],
					"style" : "",
					"text" : "r sigma"
				}

			}
, 			{
				"box" : 				{
					"fontname" : "Arial",
					"fontsize" : 11.0,
					"id" : "obj-12",
					"maxclass" : "newobj",
					"numinlets" : 0,
					"numoutlets" : 1,
					"outlettype" : [ "" ],
					"patching_rect" : [ 443.0, 102.0, 26.0, 21.0 ],
					"style" : "",
					"text" : "r V"
				}

			}
, 			{
				"box" : 				{
					"fontname" : "Arial",
					"fontsize" : 11.0,
					"id" : "obj-13",
					"maxclass" : "newobj",
					"numinlets" : 0,
					"numoutlets" : 1,
					"outlettype" : [ "" ],
					"patching_rect" : [ 273.0, 118.0, 26.0, 21.0 ],
					"style" : "",
					"text" : "r U"
				}

			}
, 			{
				"box" : 				{
					"fontname" : "Arial",
					"fontsize" : 11.0,
					"id" : "obj-14",
					"maxclass" : "newobj",
					"numinlets" : 2,
					"numoutlets" : 2,
					"outlettype" : [ "jit_matrix", "" ],
					"patching_rect" : [ 273.0, 194.0, 65.0, 21.0 ],
					"style" : "",
					"text" : "jit.la.mult"
				}

			}
, 			{
				"box" : 				{
					"fontname" : "Arial",
					"fontsize" : 11.0,
					"id" : "obj-15",
					"maxclass" : "newobj",
					"numinlets" : 2,
					"numoutlets" : 2,
					"outlettype" : [ "jit_matrix", "" ],
					"patching_rect" : [ 319.0, 166.0, 143.0, 21.0 ],
					"style" : "",
					"text" : "jit.la.mult"
				}

			}
, 			{
				"box" : 				{
					"fontname" : "Arial",
					"fontsize" : 11.0,
					"id" : "obj-16",
					"linecount" : 6,
					"maxclass" : "comment",
					"numinlets" : 1,
					"numoutlets" : 0,
					"patching_rect" : [ 482.0, 246.0, 294.0, 80.0 ],
					"style" : "",
					"text" : "The single value decomposition of a matrix breaks the matrix down into fundamental components: eigenvectors and eigenvalues. The U or left-hand matrix gives the eigenvectors spanning column space and the V or right-hand matrix gives the eigenvectors spanning row space. The vectors in both U and V are orthonormal.",
					"textcolor" : [ 0.698039, 0.705882, 0.654902, 1.0 ]
				}

			}
, 			{
				"box" : 				{
					"fontname" : "Arial",
					"fontsize" : 9.0,
					"hidden" : 1,
					"id" : "obj-17",
					"maxclass" : "newobj",
					"numinlets" : 4,
					"numoutlets" : 0,
					"patching_rect" : [ 730.0, 220.0, 85.0, 19.0 ],
					"style" : "",
					"text" : "bgcolor 50 58 81"
				}

			}
, 			{
				"box" : 				{
					"fontname" : "Arial",
					"fontsize" : 11.0,
					"id" : "obj-18",
					"linecount" : 2,
					"maxclass" : "comment",
					"numinlets" : 1,
					"numoutlets" : 0,
					"patching_rect" : [ 482.0, 189.0, 216.0, 31.0 ],
					"style" : "",
					"text" : "for input A, an mxn matrix, the outputs are matrices U (nxm), ∑ (nx1), and V (nxn)",
					"textcolor" : [ 0.521569, 0.513726, 0.45098, 1.0 ]
				}

			}
, 			{
				"box" : 				{
					"fontname" : "Arial",
					"fontsize" : 11.0,
					"id" : "obj-19",
					"maxclass" : "comment",
					"numinlets" : 1,
					"numoutlets" : 0,
					"patching_rect" : [ 482.0, 118.0, 225.0, 19.0 ],
					"style" : "",
					"text" : "singular value decomposition of a matrix",
					"textcolor" : [ 0.698039, 0.705882, 0.654902, 1.0 ]
				}

			}
, 			{
				"box" : 				{
					"fontname" : "Arial",
					"fontsize" : 20.0,
					"id" : "obj-20",
					"maxclass" : "comment",
					"numinlets" : 1,
					"numoutlets" : 0,
					"patching_rect" : [ 479.0, 94.0, 112.0, 29.0 ],
					"style" : "",
					"text" : "xray.jit.svd",
					"textcolor" : [ 0.721569, 0.788235, 0.898039, 1.0 ]
				}

			}
, 			{
				"box" : 				{
					"bgcolor" : [ 0.992218, 0.992218, 0.992218, 1.0 ],
					"bordercolor" : [ 0.0, 0.0, 0.0, 1.0 ],
					"cols" : 130,
					"colwidth" : 45,
					"fontface" : 0,
					"fontname" : "Geneva",
					"fontsize" : 9.0,
					"gridlinecolor" : [ 0.0, 0.0, 0.0, 1.0 ],
					"hcellcolor" : [ 0.836576, 0.836576, 0.933852, 1.0 ],
					"headercolor" : [ 0.743191, 0.743191, 0.743191, 1.0 ],
					"id" : "obj-21",
					"maxclass" : "jit.cellblock",
					"numinlets" : 2,
					"numoutlets" : 4,
					"outlettype" : [ "list", "", "", "" ],
					"patching_rect" : [ 273.0, 218.0, 151.0, 84.0 ],
					"precision" : 4,
					"rowheight" : 17,
					"rows" : 4
				}

			}
, 			{
				"box" : 				{
					"bgcolor" : [ 0.992218, 0.992218, 0.992218, 1.0 ],
					"bordercolor" : [ 0.0, 0.0, 0.0, 1.0 ],
					"cols" : 130,
					"colwidth" : 45,
					"fontface" : 0,
					"fontname" : "Geneva",
					"fontsize" : 9.0,
					"gridlinecolor" : [ 0.0, 0.0, 0.0, 1.0 ],
					"hcellcolor" : [ 0.836576, 0.836576, 0.933852, 1.0 ],
					"headercolor" : [ 0.743191, 0.743191, 0.743191, 1.0 ],
					"id" : "obj-22",
					"maxclass" : "jit.cellblock",
					"numinlets" : 2,
					"numoutlets" : 4,
					"outlettype" : [ "list", "", "", "" ],
					"patching_rect" : [ 240.0, 483.0, 151.0, 33.0 ],
					"precision" : 4,
					"rowheight" : 17,
					"rows" : 1
				}

			}
, 			{
				"box" : 				{
					"fontname" : "Arial",
					"fontsize" : 11.0,
					"id" : "obj-23",
					"maxclass" : "newobj",
					"numinlets" : 1,
					"numoutlets" : 2,
					"outlettype" : [ "jit_matrix", "" ],
					"patching_rect" : [ 264.0, 356.0, 78.0, 21.0 ],
					"style" : "",
					"text" : "jit.transpose"
				}

			}
, 			{
				"box" : 				{
					"fontname" : "Arial",
					"fontsize" : 9.0,
					"id" : "obj-24",
					"maxclass" : "newobj",
					"numinlets" : 0,
					"numoutlets" : 1,
					"outlettype" : [ "" ],
					"patching_rect" : [ 411.0, 463.0, 22.0, 19.0 ],
					"style" : "",
					"text" : "r V"
				}

			}
, 			{
				"box" : 				{
					"fontname" : "Arial",
					"fontsize" : 9.0,
					"id" : "obj-25",
					"maxclass" : "newobj",
					"numinlets" : 0,
					"numoutlets" : 1,
					"outlettype" : [ "" ],
					"patching_rect" : [ 225.0, 463.0, 43.0, 19.0 ],
					"style" : "",
					"text" : "r sigma"
				}

			}
, 			{
				"box" : 				{
					"fontname" : "Arial",
					"fontsize" : 9.0,
					"id" : "obj-26",
					"maxclass" : "newobj",
					"numinlets" : 0,
					"numoutlets" : 1,
					"outlettype" : [ "" ],
					"patching_rect" : [ 36.0, 463.0, 22.0, 19.0 ],
					"style" : "",
					"text" : "r U"
				}

			}
, 			{
				"box" : 				{
					"fontname" : "Arial",
					"fontsize" : 11.0,
					"id" : "obj-27",
					"maxclass" : "newobj",
					"numinlets" : 1,
					"numoutlets" : 0,
					"patching_rect" : [ 264.0, 422.0, 24.0, 21.0 ],
					"style" : "",
					"text" : "s V"
				}

			}
, 			{
				"box" : 				{
					"fontname" : "Arial",
					"fontsize" : 11.0,
					"id" : "obj-28",
					"maxclass" : "newobj",
					"numinlets" : 1,
					"numoutlets" : 0,
					"patching_rect" : [ 148.5, 395.0, 50.0, 21.0 ],
					"style" : "",
					"text" : "s sigma"
				}

			}
, 			{
				"box" : 				{
					"fontname" : "Arial",
					"fontsize" : 11.0,
					"id" : "obj-29",
					"maxclass" : "newobj",
					"numinlets" : 1,
					"numoutlets" : 0,
					"patching_rect" : [ 36.0, 395.0, 25.0, 21.0 ],
					"style" : "",
					"text" : "s U"
				}

			}
, 			{
				"box" : 				{
					"fontface" : 0,
					"fontname" : "Arial",
					"fontsize" : 11.0,
					"id" : "obj-30",
					"maxclass" : "jit.fpsgui",
					"mode" : 3,
					"numinlets" : 1,
					"numoutlets" : 2,
					"outlettype" : [ "", "" ],
					"patching_rect" : [ 264.0, 382.0, 60.0, 34.0 ],
					"style" : ""
				}

			}
, 			{
				"box" : 				{
					"fontface" : 0,
					"fontname" : "Arial",
					"fontsize" : 11.0,
					"id" : "obj-31",
					"maxclass" : "jit.fpsgui",
					"mode" : 3,
					"numinlets" : 1,
					"numoutlets" : 2,
					"outlettype" : [ "", "" ],
					"patching_rect" : [ 148.5, 356.0, 60.0, 34.0 ],
					"style" : ""
				}

			}
, 			{
				"box" : 				{
					"fontface" : 0,
					"fontname" : "Arial",
					"fontsize" : 11.0,
					"id" : "obj-32",
					"maxclass" : "jit.fpsgui",
					"mode" : 3,
					"numinlets" : 1,
					"numoutlets" : 2,
					"outlettype" : [ "", "" ],
					"patching_rect" : [ 36.0, 356.0, 60.0, 34.0 ],
					"style" : ""
				}

			}
, 			{
				"box" : 				{
					"bgcolor" : [ 0.992218, 0.992218, 0.992218, 1.0 ],
					"bordercolor" : [ 0.0, 0.0, 0.0, 1.0 ],
					"cols" : 130,
					"colwidth" : 45,
					"fontface" : 0,
					"fontname" : "Geneva",
					"fontsize" : 9.0,
					"gridlinecolor" : [ 0.0, 0.0, 0.0, 1.0 ],
					"hcellcolor" : [ 0.836576, 0.836576, 0.933852, 1.0 ],
					"headercolor" : [ 0.743191, 0.743191, 0.743191, 1.0 ],
					"id" : "obj-33",
					"maxclass" : "jit.cellblock",
					"numinlets" : 2,
					"numoutlets" : 4,
					"outlettype" : [ "list", "", "", "" ],
					"patching_rect" : [ 411.0, 483.0, 151.0, 66.0 ],
					"precision" : 4,
					"rowheight" : 17,
					"rows" : 130
				}

			}
, 			{
				"box" : 				{
					"bgcolor" : [ 0.992218, 0.992218, 0.992218, 1.0 ],
					"bordercolor" : [ 0.0, 0.0, 0.0, 1.0 ],
					"cols" : 130,
					"colwidth" : 45,
					"fontface" : 0,
					"fontname" : "Geneva",
					"fontsize" : 9.0,
					"gridlinecolor" : [ 0.0, 0.0, 0.0, 1.0 ],
					"hcellcolor" : [ 0.836576, 0.836576, 0.933852, 1.0 ],
					"headercolor" : [ 0.743191, 0.743191, 0.743191, 1.0 ],
					"id" : "obj-34",
					"maxclass" : "jit.cellblock",
					"numinlets" : 2,
					"numoutlets" : 4,
					"outlettype" : [ "list", "", "", "" ],
					"patching_rect" : [ 36.0, 483.0, 151.0, 83.0 ],
					"precision" : 4,
					"rowheight" : 17,
					"rows" : 4
				}

			}
, 			{
				"box" : 				{
					"fontname" : "Arial",
					"fontsize" : 11.0,
					"id" : "obj-35",
					"maxclass" : "newobj",
					"numinlets" : 1,
					"numoutlets" : 2,
					"outlettype" : [ "jit_matrix", "" ],
					"patching_rect" : [ 36.0, 194.0, 210.0, 21.0 ],
					"style" : "",
					"text" : "jit.matrix 1 float32 130 4 @adapt 0"
				}

			}
, 			{
				"box" : 				{
					"fontname" : "Arial",
					"fontsize" : 11.0,
					"id" : "obj-37",
					"maxclass" : "newobj",
					"numinlets" : 1,
					"numoutlets" : 2,
					"outlettype" : [ "jit_matrix", "" ],
					"patching_rect" : [ 36.0, 166.0, 77.0, 21.0 ],
					"style" : "",
					"text" : "jit.rgb2luma"
				}

			}
, 			{
				"box" : 				{
					"bgcolor" : [ 0.992218, 0.992218, 0.992218, 1.0 ],
					"bordercolor" : [ 0.0, 0.0, 0.0, 1.0 ],
					"cols" : 130,
					"colwidth" : 45,
					"fontface" : 0,
					"fontname" : "Geneva",
					"fontsize" : 9.0,
					"gridlinecolor" : [ 0.0, 0.0, 0.0, 1.0 ],
					"hcellcolor" : [ 0.836576, 0.836576, 0.933852, 1.0 ],
					"headercolor" : [ 0.743191, 0.743191, 0.743191, 1.0 ],
					"id" : "obj-41",
					"maxclass" : "jit.cellblock",
					"numinlets" : 2,
					"numoutlets" : 4,
					"outlettype" : [ "list", "", "", "" ],
					"patching_rect" : [ 50.0, 218.0, 151.0, 84.0 ],
					"precision" : 4,
					"rowheight" : 17,
					"rows" : 4
				}

			}
, 			{
				"box" : 				{
					"color" : [ 1.0, 0.890196, 0.090196, 1.0 ],
					"fontname" : "Arial",
					"fontsize" : 11.0,
					"id" : "obj-42",
					"maxclass" : "newobj",
					"numinlets" : 1,
					"numoutlets" : 4,
					"outlettype" : [ "jit_matrix", "jit_matrix", "jit_matrix", "" ],
					"patching_rect" : [ 36.0, 319.0, 244.0, 21.0 ],
					"style" : "",
					"text" : "xray.jit.svd"
				}

			}
 ],
		"lines" : [ 			{
				"patchline" : 				{
					"destination" : [ "obj-15", 0 ],
					"disabled" : 0,
					"hidden" : 0,
					"source" : [ "obj-10", 0 ]
				}

			}
, 			{
				"patchline" : 				{
					"destination" : [ "obj-10", 0 ],
					"disabled" : 0,
					"hidden" : 0,
					"source" : [ "obj-11", 0 ]
				}

			}
, 			{
				"patchline" : 				{
					"destination" : [ "obj-15", 1 ],
					"disabled" : 0,
					"hidden" : 0,
					"source" : [ "obj-12", 0 ]
				}

			}
, 			{
				"patchline" : 				{
					"destination" : [ "obj-14", 0 ],
					"disabled" : 0,
					"hidden" : 0,
					"source" : [ "obj-13", 0 ]
				}

			}
, 			{
				"patchline" : 				{
					"destination" : [ "obj-21", 0 ],
					"disabled" : 0,
					"hidden" : 0,
					"source" : [ "obj-14", 0 ]
				}

			}
, 			{
				"patchline" : 				{
					"destination" : [ "obj-14", 1 ],
					"disabled" : 0,
					"hidden" : 0,
					"source" : [ "obj-15", 0 ]
				}

			}
, 			{
				"patchline" : 				{
					"destination" : [ "obj-30", 0 ],
					"disabled" : 0,
					"hidden" : 0,
					"source" : [ "obj-23", 0 ]
				}

			}
, 			{
				"patchline" : 				{
					"destination" : [ "obj-33", 0 ],
					"disabled" : 0,
					"hidden" : 0,
					"source" : [ "obj-24", 0 ]
				}

			}
, 			{
				"patchline" : 				{
					"destination" : [ "obj-22", 0 ],
					"disabled" : 0,
					"hidden" : 0,
					"source" : [ "obj-25", 0 ]
				}

			}
, 			{
				"patchline" : 				{
					"destination" : [ "obj-34", 0 ],
					"disabled" : 0,
					"hidden" : 0,
					"source" : [ "obj-26", 0 ]
				}

			}
, 			{
				"patchline" : 				{
					"destination" : [ "obj-37", 0 ],
					"disabled" : 0,
					"hidden" : 0,
					"source" : [ "obj-3", 0 ]
				}

			}
, 			{
				"patchline" : 				{
					"destination" : [ "obj-27", 0 ],
					"disabled" : 0,
					"hidden" : 0,
					"source" : [ "obj-30", 0 ]
				}

			}
, 			{
				"patchline" : 				{
					"destination" : [ "obj-28", 0 ],
					"disabled" : 0,
					"hidden" : 0,
					"source" : [ "obj-31", 0 ]
				}

			}
, 			{
				"patchline" : 				{
					"destination" : [ "obj-29", 0 ],
					"disabled" : 0,
					"hidden" : 0,
					"source" : [ "obj-32", 0 ]
				}

			}
, 			{
				"patchline" : 				{
					"destination" : [ "obj-41", 0 ],
					"disabled" : 0,
					"hidden" : 0,
					"midpoints" : [ 45.5, 214.0, 59.5, 214.0 ],
					"source" : [ "obj-35", 0 ]
				}

			}
, 			{
				"patchline" : 				{
					"destination" : [ "obj-42", 0 ],
					"disabled" : 0,
					"hidden" : 0,
					"midpoints" : [ 45.5, 317.0, 45.5, 317.0 ],
					"source" : [ "obj-35", 0 ]
				}

			}
, 			{
				"patchline" : 				{
					"destination" : [ "obj-35", 0 ],
					"disabled" : 0,
					"hidden" : 0,
					"source" : [ "obj-37", 0 ]
				}

			}
, 			{
				"patchline" : 				{
					"destination" : [ "obj-23", 0 ],
					"disabled" : 0,
					"hidden" : 0,
					"source" : [ "obj-42", 2 ]
				}

			}
, 			{
				"patchline" : 				{
					"destination" : [ "obj-31", 0 ],
					"disabled" : 0,
					"hidden" : 0,
					"source" : [ "obj-42", 1 ]
				}

			}
, 			{
				"patchline" : 				{
					"destination" : [ "obj-32", 0 ],
					"disabled" : 0,
					"hidden" : 0,
					"source" : [ "obj-42", 0 ]
				}

			}
 ],
		"parameters" : 		{
			"obj-3::obj-4::obj-21" : [ "number", "number", 0 ],
			"obj-3::obj-4::obj-18" : [ "number[1]", "number[1]", 0 ],
			"obj-3::obj-4::obj-20" : [ "live.tab[1]", "live.tab[1]", 0 ]
		}
,
		"dependency_cache" : [ 			{
				"name" : "xray.diagonalize.js",
				"bootpath" : "~/Documents/Max 7/Packages/XRAY/jsextensions",
				"type" : "TEXT",
				"implicit" : 1
			}
, 			{
				"name" : "demovideo.maxpat",
				"bootpath" : "C74:/help/jitter",
				"type" : "JSON",
				"implicit" : 1
			}
, 			{
				"name" : "xray.jit.pct",
				"bootpath" : "~/Documents/Max 7/Packages/XRAY/media",
				"type" : "PICT",
				"implicit" : 1
			}
, 			{
				"name" : "xray.jit.svd.mxo",
				"type" : "iLaX"
			}
 ],
		"embedsnapshot" : 0
	}

}
